<svg width="70" height="19" viewBox="0 0 70 19" fill="none" xmlns="http://www.w3.org/2000/svg">
<g clip-path="url(#clip0_1_135)">
<path d="M10.8039 6.89258H5.40193V12.6604H10.8039V6.89258Z" fill="white"/>
<path d="M16.2058 4.70963V6.8926H10.8039V1.12476H12.8483C12.8356 1.24332 12.8296 1.36348 12.8296 1.48525C12.8296 3.27728 14.1898 4.72966 15.8682 4.72966C15.9822 4.72966 16.0948 4.72325 16.2058 4.70963Z" fill="white"/>
<path d="M3.35745 1.12476H5.40193V6.8926H0V4.70963C0.11104 4.72325 0.22358 4.72966 0.337621 4.72966C2.01597 4.72966 3.37621 3.27728 3.37621 1.48525C3.37621 1.36348 3.3702 1.24332 3.35745 1.12476Z" fill="white"/>
<path d="M0 14.8434V12.6604H5.40193V18.4283H3.35745C3.3702 18.3097 3.37621 18.1895 3.37621 18.0678C3.37621 16.2757 2.01597 14.8234 0.337621 14.8234C0.22358 14.8234 0.11104 14.8298 0 14.8434Z" fill="white"/>
<path d="M12.8483 18.4283H10.8039V12.6604H16.2058V14.8434C16.0948 14.8298 15.9822 14.8234 15.8682 14.8234C14.1898 14.8234 12.8296 16.2757 12.8296 18.0678C12.8296 18.1895 12.8356 18.3097 12.8483 18.4283Z" fill="white"/>
<path d="M23.7782 16.6314V7.95402H21.577V5.08773H23.7782V1.08469H26.9954V5.08773H29.5591V7.95402H26.9954V15.5724H29.5591V18.4387H25.6404L23.7782 16.6306V16.6314Z" fill="white"/>
<path d="M30.7205 5.08774H34.1552L36.6221 15.0044H36.7189L39.0649 5.08774H41.943L44.3131 15.0044H44.3858L46.8527 5.08774H50.2875L46.3936 18.4395H42.6205L40.5647 9.89107H40.4679L38.3882 18.4395H34.6151L30.7212 5.08774H30.7205Z" fill="white"/>
<path d="M51.9561 3.05176e-05H55.4636V3.25405H51.9561V3.05176e-05ZM52.1016 5.08775H55.3428V18.4395H52.1016V5.08775Z" fill="white"/>
<path d="M61.5827 7.38606H61.6555C62.5266 5.52674 63.9288 4.72565 65.695 4.72565C68.8633 4.72565 70 6.68831 70 9.50334V18.4387H66.7588V9.99361C66.7588 8.57328 66.0573 7.59194 64.7031 7.59194C62.7194 7.59194 61.7035 9.32229 61.7035 11.466V18.4387H58.4624V5.08774H61.5827V7.38606Z" fill="white"/>
</g>
<defs>
<clipPath id="clip0_1_135">
<rect width="70" height="18.4395" fill="white"/>
</clipPath>
</defs>
</svg>
