<svg width="100" height="27" viewBox="0 0 202 54" fill="none" xmlns="http://www.w3.org/2000/svg">
<g clip-path="url(#clip0_1_135)">
<path d="M31.1769 19.89H15.5884V36.5343H31.1769V19.89Z" fill="white"/>
<path d="M46.7653 13.5906V19.89H31.1769V3.2457H37.0766C37.0398 3.58783 37.0225 3.93459 37.0225 4.28597C37.0225 9.45727 40.9478 13.6484 45.791 13.6484C46.1201 13.6484 46.4448 13.6299 46.7653 13.5906Z" fill="white"/>
<path d="M9.68865 3.2457H15.5884V19.89H7.62939e-06V13.5906C0.320436 13.6299 0.645195 13.6484 0.974284 13.6484C5.81752 13.6484 9.74277 9.45727 9.74277 4.28597C9.74277 3.93459 9.72545 3.58783 9.68865 3.2457Z" fill="white"/>
<path d="M7.62939e-06 42.8338V36.5344H15.5884V53.1787H9.68865C9.72545 52.8366 9.74277 52.4898 9.74277 52.1384C9.74277 46.9671 5.81752 42.776 0.974284 42.776C0.645195 42.776 0.320436 42.7945 7.62939e-06 42.8338Z" fill="white"/>
<path d="M37.0766 53.1787H31.1769V36.5344H46.7653V42.8338C46.4448 42.7945 46.1201 42.776 45.791 42.776C40.9478 42.776 37.0225 46.9671 37.0225 52.1384C37.0225 52.4898 37.0398 52.8366 37.0766 53.1787Z" fill="white"/>
<path d="M68.6172 47.9936V22.9531H62.2649V14.6818H68.6172V3.13013H77.901V14.6818H85.299V22.9531H77.901V44.9375H85.299V53.2088H73.9909L68.6172 47.9912V47.9936Z" fill="white"/>
<path d="M88.6505 14.6818H98.5621L105.681 43.2985H105.96L112.73 14.6818H121.035L127.875 43.2985H128.085L135.204 14.6818H145.115L133.879 53.2111H122.99L117.058 28.5428H116.779L110.777 53.2111H99.8893L88.6526 14.6818H88.6505Z" fill="white"/>
<path d="M149.93 6.10352e-05H160.052V9.39024H149.93V6.10352e-05ZM150.35 14.6818H159.703V53.2111H150.35V14.6818Z" fill="white"/>
<path d="M177.71 21.314H177.92C180.434 15.9486 184.48 13.6368 189.577 13.6368C198.72 13.6368 202 19.3005 202 27.4239V53.2087H192.647V28.8387C192.647 24.74 190.623 21.9082 186.715 21.9082C180.99 21.9082 178.059 26.9015 178.059 33.0876V53.2087H168.706V14.6817H177.71V21.314Z" fill="white"/>
</g>
<defs>
<clipPath id="clip0_1_135">
<rect width="100" height="27" fill="white"/>
</clipPath>
</defs>
</svg>
