<svg width="429" height="113" viewBox="0 0 429 113" fill="none" xmlns="http://www.w3.org/2000/svg">
<g clip-path="url(#clip0_1_135)">
<path d="M66.2078 42.2389H33.1039V77.5851H66.2078V42.2389Z" fill="#231818"/>
<path d="M99.3117 28.8613V42.2389H66.2078V6.89261H78.7367C78.6585 7.61917 78.6218 8.35555 78.6218 9.10175C78.6218 20.0836 86.9575 28.984 97.2427 28.984C97.9416 28.984 98.6312 28.9447 99.3117 28.8613Z" fill="#231818"/>
<path d="M20.575 6.89261H33.1039V42.2389H1.52588e-05V28.8613C0.680484 28.9447 1.37015 28.984 2.06901 28.984C12.3542 28.984 20.6899 20.0836 20.6899 9.10175C20.6899 8.35555 20.6532 7.61917 20.575 6.89261Z" fill="#231818"/>
<path d="M1.52588e-05 90.9627V77.5851H33.1039V112.931H20.575C20.6532 112.205 20.6899 111.468 20.6899 110.722C20.6899 99.7403 12.3542 90.84 2.06901 90.84C1.37015 90.84 0.680484 90.8792 1.52588e-05 90.9627Z" fill="#231818"/>
<path d="M78.7367 112.931H66.2078V77.5851H99.3117V90.9627C98.6312 90.8792 97.9416 90.84 97.2427 90.84C86.9575 90.84 78.6218 99.7403 78.6218 110.722C78.6218 111.468 78.6585 112.205 78.7367 112.931Z" fill="#231818"/>
<path d="M145.717 101.92V48.7436H132.227V31.1785H145.717V6.64722H165.432V31.1785H181.143V48.7436H165.432V95.4301H181.143V112.995H157.129L145.717 101.915V101.92Z" fill="#231818"/>
<path d="M188.26 31.1785H209.309L224.426 91.9495H225.019L239.396 31.1785H257.033L271.558 91.9495H272.004L287.121 31.1785H308.17L284.307 113H261.185L248.587 60.614H247.994L235.249 113H212.127L188.265 31.1785H188.26Z" fill="#231818"/>
<path d="M318.395 0.00012207H339.89V19.9413H318.395V0.00012207ZM319.287 31.1785H339.149V113H319.287V31.1785Z" fill="#231818"/>
<path d="M377.389 45.263H377.835C383.173 33.8687 391.766 28.9595 402.589 28.9595C422.006 28.9595 428.971 40.987 428.971 58.238V112.995H409.109V61.2424C409.109 52.5384 404.81 46.5246 396.511 46.5246C384.355 46.5246 378.129 57.1285 378.129 70.2655V112.995H358.267V31.1785H377.389V45.263Z" fill="#231818"/>
</g>
<defs>
<clipPath id="clip0_1_135">
<rect width="428.971" height="113" fill="white"/>
</clipPath>
</defs>
</svg>
